<?xml version="1.0" encoding="UTF-8" standalone="no"?>
<!-- Created with Inkscape (http://www.inkscape.org/) -->

<svg
   width="51.508106mm"
   height="51.508102mm"
   viewBox="0 0 51.508107 51.508103"
   version="1.1"
   id="svg1052"
   inkscape:version="1.1.2 (0a00cf5339, 2022-02-04, custom)"
   sodipodi:docname="dftbschool-logo.svg"
   xmlns:inkscape="http://www.inkscape.org/namespaces/inkscape"
   xmlns:sodipodi="http://sodipodi.sourceforge.net/DTD/sodipodi-0.dtd"
   xmlns="http://www.w3.org/2000/svg"
   xmlns:svg="http://www.w3.org/2000/svg">
  <sodipodi:namedview
     id="namedview1054"
     pagecolor="#ffffff"
     bordercolor="#666666"
     borderopacity="1.0"
     inkscape:pageshadow="2"
     inkscape:pageopacity="0.0"
     inkscape:pagecheckerboard="0"
     inkscape:document-units="mm"
     showgrid="false"
     inkscape:zoom="2.9715483"
     inkscape:cx="45.094337"
     inkscape:cy="76.559415"
     inkscape:window-width="1920"
     inkscape:window-height="1020"
     inkscape:window-x="0"
     inkscape:window-y="32"
     inkscape:window-maximized="1"
     inkscape:current-layer="layer1" />
  <defs
     id="defs1049" />
  <g
     inkscape:label="Layer 1"
     inkscape:groupmode="layer"
     id="layer1"
     transform="translate(-91.616886,-78.961757)">
    <g
       aria-label="TB+"
       id="text821-1"
       style="font-size:21.7624px;line-height:125%;font-family:'Lucid Type B BRK';-inkscape-font-specification:'Lucid Type B BRK, Normal';text-align:center;letter-spacing:0px;word-spacing:0px;text-anchor:middle;fill:#381818;stroke-width:0.680075px">
      <path
         d="m 119.49984,101.41157 q 0,-0.3482 0.087,-0.50053 0.10881,-0.15234 0.34819,-0.41349 V 89.507538 q -0.0435,0 -0.1741,-0.04353 -0.13057,-0.06529 -0.17409,-0.04352 -0.1741,0.108812 -0.26115,0.217624 -0.087,0.08705 -0.15234,0.152337 -0.0653,0.06529 -0.1741,0.108812 -0.0871,0.04353 -0.28291,0.04353 -0.23939,0 -0.54406,-0.152337 -0.30467,-0.152337 -0.30467,-0.45701 v -1.109883 q 0,-0.239386 0.32643,-0.413485 0.32644,-0.1741 0.5223,-0.1741 h 4.396 q 0.087,0 0.21763,0.06529 0.13057,0.04352 0.23938,0.130574 0.13058,0.08705 0.21763,0.195862 0.0871,0.108812 0.0871,0.195861 v 1.109883 q 0,0.304673 -0.30468,0.45701 -0.30467,0.152337 -0.54406,0.152337 -0.17409,0 -0.28291,-0.04353 -0.0871,-0.04353 -0.1741,-0.108812 -0.0653,-0.06529 -0.15233,-0.152337 -0.087,-0.108812 -0.26115,-0.217624 -0.0435,-0.02176 -0.1741,0.04352 -0.13058,0.04353 -0.1741,0.04353 v 10.990012 q 0.23939,0.26115 0.32644,0.41349 0.10881,0.15233 0.10881,0.50053 0,0.13057 0,0.23939 0.0218,0.10881 -0.0871,0.21762 -0.0653,0.0871 -0.19586,0.21762 -0.13058,0.13058 -0.15234,0.13058 h -1.87157 q -0.0218,0 -0.15233,-0.13058 -0.13058,-0.13057 -0.19586,-0.21762 -0.10882,-0.10881 -0.10882,-0.21762 0.0218,-0.10882 0.0218,-0.23939 z"
         id="path829" />
      <path
         d="m 124.35286,101.41157 q 0,0.13057 -0.0218,0.23939 0,0.10881 0.10881,0.21762 0.0653,0.0871 0.19586,0.21762 0.13057,0.13058 0.15234,0.13058 h 3.76489 q 0.39172,0 0.78345,-0.21762 0.41348,-0.21763 0.73992,-0.54406 0.3482,-0.3482 0.56582,-0.73993 0.21763,-0.41348 0.21763,-0.805205 v -3.26436 q 0,-0.217624 -0.10882,-0.457011 -0.10881,-0.261148 -0.23938,-0.478772 -0.13058,-0.217624 -0.23939,-0.413486 -0.10881,-0.195862 -0.10881,-0.326436 0,-0.130574 0.10881,-0.304674 0.10881,-0.195861 0.23939,-0.413485 0.13057,-0.217624 0.23938,-0.457011 0.10882,-0.239386 0.10882,-0.478772 v -3.26436 q 0,-0.217624 -0.13058,-0.478773 -0.10881,-0.282911 -0.21762,-0.45701 -0.32644,-0.54406 -0.78345,-0.848734 -0.43525,-0.304674 -0.95754,-0.435248 -0.5223,-0.130574 -1.08812,-0.152337 -0.56583,-0.02176 -1.15341,-0.02176 h -1.32751 q -0.41348,-0.04353 -0.63111,0.261149 -0.21762,0.282911 -0.21762,0.631109 0,0.326436 0.087,0.478773 0.10881,0.152337 0.3482,0.435248 v 4.613629 q -0.23939,0.261148 -0.3482,0.413485 -0.087,0.152337 -0.087,0.478773 0,0.348198 0.087,0.500535 0.10881,0.152337 0.3482,0.413486 v 4.613629 q -0.23939,0.28291 -0.3482,0.43525 -0.087,0.15233 -0.087,0.47877 z m 2.30681,-5.527649 h 0.56582 q 0.26115,0 0.56583,0.02176 0.32643,0.02176 0.58758,0.130575 0.28291,0.08705 0.47877,0.304673 0.19587,0.195862 0.19587,0.565823 v 2.655012 q 0,0.282912 -0.28291,0.565824 -0.28292,0.28291 -0.56583,0.28291 h -1.54513 z m 0,-6.419908 q 0.0653,0 0.28291,0 0.21763,-0.02176 0.28291,-0.02176 0.21763,0 0.5223,0.04352 0.30468,0.02176 0.58759,0.130575 0.30467,0.08705 0.50053,0.282911 0.21763,0.174099 0.21763,0.500535 v 2.655013 q 0,0.261149 -0.23939,0.609347 -0.21762,0.326436 -0.5223,0.326436 h -1.63218 z"
         id="path831" />
      <path
         d="m 133.14485,95.796871 v 1.588655 q 0,0.152337 0.0871,0.261149 0.10881,0.08705 0.26115,0.152337 0.15234,0.06529 0.28291,0.08705 0.15234,0.02176 0.26115,0.02176 0.087,0 0.23938,-0.02176 0.15234,-0.02176 0.30468,-0.08705 0.15234,-0.06529 0.23938,-0.152337 0.10882,-0.108812 0.10882,-0.261149 v -1.588655 h 1.58865 q 0.28291,0 0.39173,-0.326436 0.13057,-0.326436 0.13057,-0.522297 0,-0.587585 -0.45701,-0.783447 -0.45701,-0.195861 -1.00107,-0.195861 h -0.65287 v -1.458081 q 0,-0.108812 -0.10882,-0.217624 -0.087,-0.108812 -0.23938,-0.195862 -0.13058,-0.08705 -0.28291,-0.130574 -0.13058,-0.06529 -0.21763,-0.06529 -0.10881,0 -0.26115,0.04353 -0.15233,0.04352 -0.30467,0.130574 -0.15234,0.08705 -0.26115,0.195861 -0.10881,0.108812 -0.10881,0.239387 v 1.458081 q -0.30467,0 -0.67463,0.02176 -0.3482,0 -0.67464,0.08705 -0.32643,0.06529 -0.54406,0.282911 -0.21762,0.195861 -0.21762,0.587585 0,0.195861 0.10881,0.522297 0.13057,0.326436 0.41348,0.326436 z"
         id="path833" />
    </g>
    <g
       aria-label="2022"
       id="text821-2-2"
       style="font-size:21.7624px;line-height:125%;font-family:'Lucid Type B BRK';-inkscape-font-specification:'Lucid Type B BRK, Normal';text-align:center;letter-spacing:0px;word-spacing:0px;text-anchor:middle;fill:#dd6464;stroke-width:0.680075px">
      <path
         d="m 104.14894,122.00385 q 0.0435,0.15233 0.1741,0.34819 0.15234,0.1741 0.32644,0.1741 h 4.96182 q 0.15234,0 0.32644,-0.1741 0.19586,-0.19586 0.19586,-0.34819 v -1.10989 q 0,-0.28291 -0.30467,-0.43524 -0.30468,-0.1741 -0.54406,-0.1741 -0.28291,0 -0.47878,0.13057 -0.17409,0.10881 -0.39172,0.30467 h -2.39386 q 0.10881,-0.63111 0.45701,-1.17517 0.3482,-0.54406 0.80521,-1.04459 0.45701,-0.50054 0.95754,-1.00107 0.50054,-0.50054 0.91402,-1.02283 0.43525,-0.54406 0.6964,-1.15341 0.28291,-0.63111 0.28291,-1.37103 v -3.4167 q 0,-0.58758 -0.28291,-1.04459 -0.26115,-0.47878 -0.6964,-0.80521 -0.43525,-0.3482 -0.97931,-0.5223 -0.52229,-0.19586 -1.04459,-0.19586 -0.76168,0 -1.24046,0.21762 -0.45701,0.21763 -0.80521,0.58759 -0.32643,0.3482 -0.63111,0.82697 -0.30467,0.45701 -0.73992,0.93578 -0.10881,0.10881 -0.10881,0.23939 0.0218,0.10881 0.0218,0.23938 0,0.13058 -0.0218,0.23939 0,0.10881 0.10881,0.21762 0.0653,0.0871 0.19586,0.21763 0.13058,0.13057 0.15234,0.13057 h 1.28398 q 0.32644,0 0.41349,-0.30467 0.0871,-0.30467 0.1741,-0.67464 0.10881,-0.39172 0.3482,-0.69639 0.23938,-0.30468 0.84873,-0.30468 0.43525,0 0.80521,0.21763 0.39172,0.21762 0.39172,0.73992 v 2.91616 q 0,0.67464 -0.39172,1.30575 -0.36996,0.60934 -0.80521,1.08812 -0.0435,0.0435 -0.28291,0.28291 -0.21763,0.23938 -0.47877,0.52229 -0.26115,0.28292 -0.50054,0.5223 -0.21762,0.23939 -0.26115,0.30468 -0.6964,0.76168 -1.08812,1.71923 -0.39172,0.95754 -0.39172,2.00214 0,0.0653 0,0.28291 0.0218,0.21762 0.0218,0.26115 z"
         id="path836" />
      <path
         d="m 113.61557,107.90181 q 0.52229,0 1.04459,0.19586 0.54406,0.1741 0.97931,0.5223 0.43525,0.3482 0.6964,0.82697 0.28291,0.45701 0.28291,1.0446 v 9.53193 q 0,0.58758 -0.28291,1.06636 -0.26115,0.45701 -0.6964,0.8052 -0.43525,0.32644 -0.97931,0.5223 -0.5223,0.1741 -1.04459,0.1741 -0.5223,0 -1.06636,-0.1741 -0.5223,-0.19586 -0.95755,-0.5223 -0.43525,-0.34819 -0.71816,-0.8052 -0.26115,-0.47878 -0.26115,-1.06636 v -9.53193 q 0,-0.58759 0.26115,-1.0446 0.28291,-0.47877 0.71816,-0.82697 0.43525,-0.3482 0.95755,-0.5223 0.54406,-0.19586 1.06636,-0.19586 z m 0,1.89333 q -0.43525,0 -0.82698,0.21762 -0.36996,0.21763 -0.36996,0.73993 v 9.00963 q 0,0.5223 0.36996,0.73992 0.39173,0.21762 0.82698,0.21762 0.43524,0 0.8052,-0.21762 0.39173,-0.21762 0.39173,-0.73992 v -9.00963 q 0,-0.5223 -0.39173,-0.73993 -0.36996,-0.21762 -0.8052,-0.21762 z"
         id="path838" />
      <path
         d="m 117.61985,122.00385 q 0.0435,0.15233 0.1741,0.34819 0.15234,0.1741 0.32644,0.1741 h 4.96183 q 0.15233,0 0.32643,-0.1741 0.19586,-0.19586 0.19586,-0.34819 v -1.10989 q 0,-0.28291 -0.30467,-0.43524 -0.30467,-0.1741 -0.54406,-0.1741 -0.28291,0 -0.47877,0.13057 -0.1741,0.10881 -0.39172,0.30467 h -2.39387 q 0.10881,-0.63111 0.45701,-1.17517 0.3482,-0.54406 0.80521,-1.04459 0.45701,-0.50054 0.95755,-1.00107 0.50053,-0.50054 0.91402,-1.02283 0.43524,-0.54406 0.69639,-1.15341 0.28291,-0.63111 0.28291,-1.37103 v -3.4167 q 0,-0.58758 -0.28291,-1.04459 -0.26115,-0.47878 -0.69639,-0.80521 -0.43525,-0.3482 -0.97931,-0.5223 -0.5223,-0.19586 -1.0446,-0.19586 -0.76168,0 -1.24045,0.21762 -0.45701,0.21763 -0.80521,0.58759 -0.32644,0.3482 -0.63111,0.82697 -0.30468,0.45701 -0.73992,0.93578 -0.10882,0.10881 -0.10882,0.23939 0.0218,0.10881 0.0218,0.23938 0,0.13058 -0.0218,0.23939 0,0.10881 0.10882,0.21762 0.0653,0.0871 0.19586,0.21763 0.13057,0.13057 0.15234,0.13057 h 1.28398 q 0.32643,0 0.41348,-0.30467 0.087,-0.30467 0.1741,-0.67464 0.10881,-0.39172 0.3482,-0.69639 0.23939,-0.30468 0.84873,-0.30468 0.43525,0 0.80521,0.21763 0.39173,0.21762 0.39173,0.73992 v 2.91616 q 0,0.67464 -0.39173,1.30575 -0.36996,0.60934 -0.80521,1.08812 -0.0435,0.0435 -0.28291,0.28291 -0.21762,0.23938 -0.47877,0.52229 -0.26115,0.28292 -0.50054,0.5223 -0.21762,0.23939 -0.26114,0.30468 -0.6964,0.76168 -1.08812,1.71923 -0.39173,0.95754 -0.39173,2.00214 0,0.0653 0,0.28291 0.0218,0.21762 0.0218,0.26115 z"
         id="path840" />
      <path
         d="m 124.60557,122.00385 q 0.0435,0.15233 0.1741,0.34819 0.15233,0.1741 0.32643,0.1741 h 4.96183 q 0.15233,0 0.32643,-0.1741 0.19587,-0.19586 0.19587,-0.34819 v -1.10989 q 0,-0.28291 -0.30468,-0.43524 -0.30467,-0.1741 -0.54406,-0.1741 -0.28291,0 -0.47877,0.13057 -0.1741,0.10881 -0.39172,0.30467 h -2.39387 q 0.10881,-0.63111 0.45701,-1.17517 0.3482,-0.54406 0.80521,-1.04459 0.45701,-0.50054 0.95755,-1.00107 0.50053,-0.50054 0.91402,-1.02283 0.43525,-0.54406 0.69639,-1.15341 0.28292,-0.63111 0.28292,-1.37103 v -3.4167 q 0,-0.58758 -0.28292,-1.04459 -0.26114,-0.47878 -0.69639,-0.80521 -0.43525,-0.3482 -0.97931,-0.5223 -0.5223,-0.19586 -1.0446,-0.19586 -0.76168,0 -1.24045,0.21762 -0.45701,0.21763 -0.80521,0.58759 -0.32644,0.3482 -0.63111,0.82697 -0.30467,0.45701 -0.73992,0.93578 -0.10881,0.10881 -0.10881,0.23939 0.0218,0.10881 0.0218,0.23938 0,0.13058 -0.0218,0.23939 0,0.10881 0.10881,0.21762 0.0653,0.0871 0.19586,0.21763 0.13057,0.13057 0.15234,0.13057 h 1.28398 q 0.32643,0 0.41348,-0.30467 0.0871,-0.30467 0.1741,-0.67464 0.10881,-0.39172 0.3482,-0.69639 0.23939,-0.30468 0.84873,-0.30468 0.43525,0 0.80521,0.21763 0.39173,0.21762 0.39173,0.73992 v 2.91616 q 0,0.67464 -0.39173,1.30575 -0.36996,0.60934 -0.80521,1.08812 -0.0435,0.0435 -0.28291,0.28291 -0.21762,0.23938 -0.47877,0.52229 -0.26115,0.28292 -0.50053,0.5223 -0.21763,0.23939 -0.26115,0.30468 -0.6964,0.76168 -1.08812,1.71923 -0.39173,0.95754 -0.39173,2.00214 0,0.0653 0,0.28291 0.0218,0.21762 0.0218,0.26115 z"
         id="path842" />
    </g>
    <g
       aria-label="DF"
       id="text821-1-4"
       style="font-size:21.7624px;line-height:125%;font-family:'Lucid Type B Outline BRK';-inkscape-font-specification:'Lucid Type B Outline BRK, Normal';text-align:center;letter-spacing:0px;word-spacing:0px;text-anchor:middle;fill:#381818;stroke-width:0.680075px">
      <path
         d="m 102.59982,101.20433 q 0,0.15234 0.0435,0.3482 0.0435,0.1741 0.13058,0.3482 0.10881,0.1741 0.23938,0.30467 0.15234,0.10882 0.3482,0.10882 h 3.46022 q 0.23939,0 0.47878,-0.1741 0.26115,-0.19586 0.43525,-0.32644 0.67463,-0.58758 1.04459,-1.41455 0.36996,-0.826976 0.54406,-1.740997 0.1741,-0.935783 0.19586,-1.871566 0.0435,-0.957545 0.0435,-1.762754 0,-0.805209 -0.0435,-1.740992 -0.0218,-0.957546 -0.19586,-1.871567 -0.1741,-0.935783 -0.54406,-1.762754 -0.36996,-0.848734 -1.04459,-1.436318 -0.1741,-0.130575 -0.43525,-0.304674 -0.23939,-0.195862 -0.47878,-0.195862 h -3.46022 q -0.19586,0 -0.3482,0.130575 -0.13057,0.108812 -0.23938,0.282911 -0.0871,0.174099 -0.13058,0.369961 -0.0435,0.195861 -0.0435,0.348198 0,0.326436 0.10881,0.565823 0.10881,0.217624 0.32644,0.45701 V 100.1815 q -0.21763,0.23939 -0.32644,0.47877 -0.10881,0.21763 -0.10881,0.54406 z m 0.67463,0 q 0,-0.21762 0.13058,-0.34819 0.13057,-0.15234 0.28291,-0.28292 V 89.452638 q -0.15234,-0.130574 -0.28291,-0.261148 -0.13058,-0.152337 -0.13058,-0.348199 0,-0.108812 0.0653,-0.282911 0.0653,-0.174099 0.19586,-0.174099 h 3.13379 q 0.0218,0 0.10881,0.04353 0.0871,0.04352 0.1741,0.108812 0.0871,0.04352 0.1741,0.108812 0.087,0.04352 0.10881,0.06529 0.63111,0.54406 0.95755,1.327506 0.34819,0.783447 0.50053,1.653943 0.15234,0.870496 0.1741,1.762754 0.0218,0.870496 0.0218,1.63218 0,0.718159 -0.0435,1.588655 -0.0218,0.848734 -0.19586,1.71923 -0.15234,0.870496 -0.50054,1.653945 -0.32643,0.76168 -0.91402,1.28398 -0.0218,0.0218 -0.10881,0.0871 -0.0871,0.0435 -0.1741,0.10881 -0.087,0.0435 -0.1741,0.087 -0.0871,0.0435 -0.10881,0.0435 h -3.13379 q -0.13057,0 -0.19586,-0.17409 -0.0653,-0.19587 -0.0653,-0.28292 z m 1.82805,-11.838741 q 0,0 -0.13058,0.06529 -0.13057,0.06529 -0.13057,0.108812 v 10.968252 q 0,0.0435 0.13057,0.10881 0.13058,0.0435 0.13058,0.0435 0.0653,0 0.28291,0.0218 0.21762,0 0.28291,0 0.10881,0 0.39172,0 0.30467,0 0.43525,-0.10882 0.5223,-0.39172 0.78345,-1.088115 0.28291,-0.71816 0.39172,-1.523368 0.13057,-0.805209 0.13057,-1.588655 0.0218,-0.805209 0.0218,-1.349269 0,-0.54406 -0.0218,-1.327507 0,-0.805208 -0.13057,-1.610417 -0.10881,-0.826971 -0.39172,-1.523368 -0.26115,-0.718159 -0.78345,-1.109883 -0.13058,-0.108812 -0.43525,-0.08705 -0.28291,0 -0.39172,0 z m 0.41348,0.674634 q 0.0435,-0.02176 0.13058,-0.02176 0.10881,0 0.15233,0 0.32644,0 0.54406,0.261149 0.21763,0.239386 0.3482,0.587584 0.13057,0.348199 0.19586,0.71816 0.0653,0.36996 0.10881,0.587584 0.0218,0.108812 0.0435,0.326436 0.0218,0.195862 0.0435,0.435248 0.0218,0.217624 0.0435,0.413486 0.0218,0.174099 0.0218,0.217624 0,0.02176 0,0.217624 0.0218,0.174099 0.0218,0.413486 0,0.217624 0,0.45701 0,0.239386 0,0.369961 0,0.130574 0,0.369961 0,0.239386 0,0.478772 0,0.217624 -0.0218,0.391724 0,0.174099 0,0.195861 0,0.04353 -0.0218,0.239386 -0.0218,0.1741 -0.0435,0.413486 -0.0218,0.217624 -0.0435,0.435248 -0.0218,0.195862 -0.0435,0.304674 -0.0435,0.326436 -0.13057,0.718159 -0.0871,0.391723 -0.26115,0.739921 -0.15234,0.326436 -0.41348,0.565823 -0.26115,0.217622 -0.67464,0.217622 z"
         id="path845" />
      <path
         d="m 109.99904,101.20433 q 0,0.15234 0.0435,0.3482 0.0435,0.1741 0.13058,0.3482 0.10881,0.1741 0.23938,0.30467 0.15234,0.10882 0.3482,0.10882 h 1.32751 q 0.0871,0 0.21762,-0.0871 0.15234,-0.0871 0.26115,-0.21763 0.13058,-0.13057 0.21763,-0.26115 0.087,-0.15233 0.087,-0.26114 v -5.266505 h 1.8498 q 0.26115,0.195861 0.47877,0.348198 0.23939,0.152337 0.58759,0.152337 0.3482,0 0.73992,-0.239386 0.41348,-0.261149 0.41348,-0.674635 v -1.566893 q 0,-0.435248 -0.39172,-0.674634 -0.39172,-0.239386 -0.76168,-0.239386 -0.3482,0 -0.58759,0.152336 -0.21762,0.152337 -0.47877,0.348199 h -1.80628 v -3.786658 h 1.80628 q 0.26115,0.195862 0.47877,0.348199 0.23939,0.130574 0.58759,0.130574 0.67463,0 0.91402,-0.435248 0.26115,-0.435248 0.26115,-1.00107 0,-0.152337 -0.0435,-0.391724 -0.0218,-0.239386 -0.10881,-0.45701 -0.0653,-0.217624 -0.21762,-0.369961 -0.15234,-0.152337 -0.39173,-0.152337 h -5.4406 q -0.19586,0 -0.3482,0.130575 -0.13057,0.108812 -0.23938,0.282911 -0.0871,0.174099 -0.13058,0.369961 -0.0435,0.195861 -0.0435,0.348198 0,0.326436 0.10881,0.565823 0.10881,0.217624 0.32644,0.45701 v 4.113094 q -0.21763,0.239386 -0.32644,0.478772 -0.10881,0.239387 -0.10881,0.565823 0,0.326436 0.10881,0.565822 0.10881,0.217624 0.32644,0.457011 v 4.134854 q -0.21763,0.23939 -0.32644,0.47877 -0.10881,0.21763 -0.10881,0.54406 z m 0.67463,0 q 0,-0.21762 0.13058,-0.34819 0.13057,-0.15234 0.28291,-0.28292 v -4.94006 q -0.15234,-0.130574 -0.28291,-0.261149 -0.13058,-0.130574 -0.13058,-0.348198 0,-0.217624 0.13058,-0.348199 0.13057,-0.152336 0.28291,-0.282911 v -4.940065 q -0.15234,-0.130574 -0.28291,-0.261148 -0.13058,-0.152337 -0.13058,-0.348199 0,-0.108812 0.0653,-0.282911 0.0653,-0.174099 0.19586,-0.174099 h 5.02712 q 0.26114,0 0.28291,0.282911 0.0435,0.261149 0.0435,0.413486 0,0.217624 -0.0871,0.500535 -0.0653,0.282911 -0.36996,0.282911 -0.13057,0 -0.23938,-0.06529 -0.0871,-0.08705 -0.1741,-0.174099 -0.087,-0.108812 -0.1741,-0.1741 -0.0653,-0.08705 -0.19586,-0.08705 h -2.54621 q -0.0218,0 -0.0871,0.04353 -0.0435,0.02176 -0.087,0.04352 -0.0218,0.02176 -0.0653,0.04353 -0.0218,0.02176 -0.0218,0.04353 v 4.787728 q 0,0 0.0218,0.04353 0.0435,0.02176 0.0653,0.02176 0.0435,0.02176 0.087,0.06529 0.0653,0.02176 0.0871,0.02176 h 2.54621 q 0.10881,0 0.19586,-0.06529 0.0871,-0.08705 0.15233,-0.1741 0.0871,-0.108812 0.1741,-0.174099 0.087,-0.08705 0.21763,-0.08705 0.13057,0 0.30467,0.130574 0.19586,0.130574 0.19586,0.282911 v 1.240457 q 0,0.130574 -0.1741,0.282911 -0.15233,0.130575 -0.28291,0.130575 -0.13057,0 -0.23938,-0.06529 -0.0871,-0.08705 -0.1741,-0.174099 -0.087,-0.108812 -0.1741,-0.174099 -0.0653,-0.08705 -0.19586,-0.08705 h -2.54621 q -0.0218,0 -0.0871,0.04353 -0.0435,0.02176 -0.087,0.04353 -0.0435,0.02176 -0.087,0.06529 -0.0435,0.02176 -0.0435,0.02176 v 5.6147 q 0,0 -0.0435,0.0653 -0.0435,0.0435 -0.0653,0.0871 -0.0435,0.0435 -0.13058,0.10881 -0.0653,0.0653 -0.13057,0.0653 h -0.89226 q -0.13057,0 -0.19586,-0.17409 -0.0653,-0.19587 -0.0653,-0.28292 z"
         id="path847" />
    </g>
    <rect
       style="fill:#000000;fill-opacity:0;fill-rule:nonzero;stroke:none;stroke-width:1.06413;stroke-linejoin:round;stroke-miterlimit:4;stroke-dasharray:none;stroke-dashoffset:0;stroke-opacity:1"
       id="rect964"
       width="38.591141"
       height="35.826042"
       x="99.542931"
       y="85.100319"
       inkscape:export-filename="/home/aradi/ramdisk/dftbplus.png"
       inkscape:export-xdpi="454.07999"
       inkscape:export-ydpi="454.07999" />
    <rect
       style="fill:#000000;fill-opacity:0;fill-rule:nonzero;stroke:#c4c4c4;stroke-width:0.128518;stroke-linejoin:round;stroke-miterlimit:4;stroke-dasharray:none;stroke-dashoffset:0;stroke-opacity:1"
       id="rect929"
       width="51.379589"
       height="51.379585"
       x="91.681145"
       y="79.026016"
       inkscape:export-filename="/home/aradi/ramdisk/dftbplus.png"
       inkscape:export-xdpi="454.07999"
       inkscape:export-ydpi="454.07999" />
  </g>
</svg>
